<svg width="102" height="61" viewBox="0 0 102 61" fill="none" xmlns="http://www.w3.org/2000/svg">
<path d="M0 30.5C0 13.6553 13.6566 0 30.5029 0H70.538C87.3844 0 101.041 13.6553 101.041 30.5V61H30.5029C13.6566 61 0 47.3448 0 30.5Z" fill="#252160"/>
<path d="M70.538 11.4375H30.5029C19.974 11.4375 11.4386 19.9721 11.4386 30.5C11.4386 41.0279 19.974 49.5625 30.5029 49.5625H70.538C81.0669 49.5625 89.6023 41.0279 89.6023 30.5C89.6023 19.9721 81.0669 11.4375 70.538 11.4375Z" fill="#A5B4FC"/>
<path d="M30.5029 40.0312C35.7674 40.0312 40.0351 35.764 40.0351 30.5C40.0351 25.236 35.7674 20.9688 30.5029 20.9688C25.2385 20.9688 20.9708 25.236 20.9708 30.5C20.9708 35.764 25.2385 40.0312 30.5029 40.0312Z" fill="black"/>
<path d="M26.6901 28.5938C27.743 28.5938 28.5965 27.7403 28.5965 26.6875C28.5965 25.6347 27.743 24.7812 26.6901 24.7812C25.6372 24.7812 24.7836 25.6347 24.7836 26.6875C24.7836 27.7403 25.6372 28.5938 26.6901 28.5938Z" fill="white"/>
<path d="M72.4445 40.0312C77.7089 40.0312 81.9766 35.764 81.9766 30.5C81.9766 25.236 77.7089 20.9688 72.4445 20.9688C67.18 20.9688 62.9123 25.236 62.9123 30.5C62.9123 35.764 67.18 40.0312 72.4445 40.0312Z" fill="black"/>
<path d="M68.6316 28.5938C69.6845 28.5938 70.538 27.7403 70.538 26.6875C70.538 25.6347 69.6845 24.7812 68.6316 24.7812C67.5787 24.7812 66.7252 25.6347 66.7252 26.6875C66.7252 27.7403 67.5787 28.5938 68.6316 28.5938Z" fill="white"/>
</svg>
